<?xml version="1.0" standalone="no"?>
<!DOCTYPE svg PUBLIC "-//W3C//DTD SVG 20010904//EN"
 "http://www.w3.org/TR/2001/REC-SVG-20010904/DTD/svg10.dtd">
<svg version="1.0" xmlns="http://www.w3.org/2000/svg"
 width="500.000000pt" height="500.000000pt" viewBox="0 0 500.000000 500.000000"
 preserveAspectRatio="xMidYMid meet">

<g transform="translate(0.000000,500.000000) scale(0.100000,-0.100000)"
fill="#000000" stroke="none">
<path d="M417 4582 c-196 -196 -357 -362 -357 -368 0 -5 14 -23 31 -40 52 -48
203 -237 262 -326 205 -311 335 -658 389 -1033 19 -138 17 -514 -5 -655 -76
-489 -273 -911 -597 -1279 -44 -50 -80 -94 -80 -98 0 -16 718 -725 728 -719
17 11 206 228 279 321 375 481 618 1072 698 1695 22 169 30 523 16 685 -57
654 -264 1226 -634 1746 -100 142 -345 429 -365 429 -4 0 -168 -161 -365 -358z"/>
<path d="M4122 4843 c-481 -519 -796 -1189 -887 -1888 -92 -713 40 -1453 372
-2075 117 -220 242 -403 409 -604 56 -67 123 -142 150 -168 l49 -48 365 365
364 364 -70 73 c-368 383 -603 941 -633 1502 -36 662 201 1319 643 1784 l60
63 -365 365 -366 366 -91 -99z"/>
</g>
</svg>
